<?xml version="1.0" encoding="UTF-8"?>
<svg id="Calque_2" data-name="Calque 2" xmlns="http://www.w3.org/2000/svg" viewBox="0 0 4775.37 4272.36">
  <defs>
    <style>
      .cls-1 {
        fill: #ff80c3;
      }
    </style>
  </defs>
  <g id="Calque_1-2" data-name="Calque 1">
    <g>
      <path class="cls-1" d="m652.75,3006.69c14.42,11.49,28.93,22.86,43.27,34.46,53.44,44.68,98.92,95.07,138.76,152.19,20.65,30.37,41.48,60.6,61.93,91.11,20.29,30.24,35.51,63.79,49.93,97.1,2.76,6.34,5.66,12.65,10.51,23.46,1.59-9.61,2.79-15.34,3.49-21.37,5.02-43.21,9.95-86.43,15.02-129.63,6.76-56.96,13.64-113.9,20.51-170.85,4.44-36.76,8.9-73.52,13.33-110.28,6.81-56.75,13.61-113.49,20.2-170.26,6.29-54.86,12.36-109.74,18.44-164.62.31-2.78,1.1-5.27,1.63-7.68,53.2,21.21,103.99,50.37,155.63,75.1,53.05,25.4,181.89,81.98,194.55,87.95,1.22,17.54,5.47,72.38,6.46,89.94,7.14,124.56,18.73,248.41,41.2,371.22,8.69,43.52,19.6,85.95,33.67,128.07,4.32,12.31,10,18.67,20.98,22.27,40.87,13.35,81.81,26.31,123.19,37.99,20.84,5.46,82.41,17.03,82.4,16.82-10.68-126.32-21.24-252.66-31.9-378.98-3.95-47.95-7.62-95.91-12.41-143.78-1.59-15.1,1.94-23.21,11.94-29.27,38.44-23.21,80.55-36.82,123.81-47.8,182.76-41,402.65-22.02,528.5,133.53,41.62,51.44,53.7,114.97,31.78,177.26-18.76,41.57-43.57,77.34-77.35,108.23-28.03,24.84-57.29,48.01-86.57,71.36-3.08,2.47-6.83,4.06-9.6,8.45,107.85,21.74,200.72,71.2,286.95,138.55-1.1-9.35-1.39-14.69-2.38-19.86-24.79-128.29-49.7-256.55-74.95-384.75-5.83-30.79-11.45-61.56-18.31-92.15-3.67-15.06,1.29-23.53,12.48-31.89,29.97-21.94,60.4-42.09,92.84-60.16,75.65-38.7,154.13-63.8,238.33-75.5,107.51-14.94,228.83-22.02,333.5,11.48,56.07,17.95,110.74,53.86,137.03,108.19-11.27-28.36-10.17-59.35-14.44-89.11,230.39-80.06,653.02-348.28,664.08-355.98,1.76,7.89,10.33,43.22,12.22,51.82,3.89-4.42,7.23-7.79,10.13-11.61,73.15-95.15,154.63-182.52,243.08-263.58,34.57-30.95,69.89-60.41,107.62-87.44,46.92-31.56,99.66-64.24,171.25-65.2,4.29-.06,55.37,2.52,76.72,29.99,35.84,46.11,11.99,119.39-2.07,169.96-20.62,68.85-50.25,134.31-82.65,198.32-18.03,35.08-37.16,69.58-56.02,104.22,6.68-2.85,11.59-4.09,16.63-7.27,37.74-21.96,76.27-38.61,120.05-43.8,30.04-3.22,60.85.5,89.31,10.77,28.81,9.7,58.98,20.6,82.95,39.94,37.44,29.45,65.68,64.78,89.42,105.85,19.07,36.97,35.47,75.03,51.88,113.24,1.31,3.05,2.03,7.27,3.65,13.33-56.47,71.43-203.35,236.9-205.48,238.44-7.24-16-23.01-50.56-30.56-66.42-27.01-54.54-58.86-107.18-106.59-146.16-29.64-21.44-58.53-34.15-94.33-42.25-42.68-7.31-81.85,12.37-117.65,32.93-42.31,26.32-78.57,59.08-112.52,95.34-15.11,16.77-17.16,19.78-14.96,38.86,4.05,34.35,8.64,68.45,14.99,102.45,25.58,124.3,57.26,247.1,89.66,369.76,10.8,40.69,21.76,81.33,32.66,121.99-63.98,78.06-231.63,250.36-245.93,264.11-8.76-57.34-18.22-148.53-26.41-205.94-85.72,47.27-169.5,97.9-254.07,147.17-86.68,50.14-221.22,120.13-310.84,164.84-2.24-6.71-14.01-26.7-13.55-27.9.18-.47-13.92,15.95-21.32,23.87-61.23,63.23-133.76,113.53-212.69,152.37-67.38,32.04-136.77,55.07-209.64,70.94-55.23,10.57-110.15,16.42-166.31,18.87-24.92.82-49.9-.99-74.47-5.18-24.84-4.43-48.9-12.14-72.97-19.53-9.75-2.91-14.22-9.91-16.29-20.58-15.57-80.11-31.58-160.14-47.35-240.21-.34-1.71-1.38-3.23-2.45-5.65-11.36,1.75-46.5,1.38-55.92,3.65-12.6-21.3-35.92-60.8-48.54-82.09-40.47-66.99-85.67-129.58-138.59-187.33-39.95-41.45-82.76-77.92-130.51-110.11-24.67-16.49-52.51-28.63-81.2-35.99-53.53-11.98-103.24-16.26-157.61-7.62-21.96,2.76-26.98,11.21-23.72,32.97,4.07,36.77,9.55,73.09,16.54,109.42,26.81,129.77,60.7,257.75,96.85,385.2,11.68,40.8,23.63,81.52,35.66,122.21-41.65,14.8-83.47,28.99-125.53,42.54,14.79,23.48,29.67,46.9,44.65,70.26-4.58.48-7.67,1.5-10.69,1-82.14-13.79-208.96-42.39-289.67-62.98,0,0-23.25-34.15-31.36-50.45-112.86-208.09-214.45-422.06-316.99-635.37-5.21-10.85-10.81-17.93-20.9-22.22-28.39-12.44-56.41-25.61-84.41-38.88-4.3-2.04-8.64-3.31-13.9-5.3-2.25,11.04-4.82,21.22-6.42,31.95-5.43,36.1-10.94,72.28-15.41,108.41-6.3,51-12.54,102.54-16.18,153.69-5.03,70.86-5.87,141.41,3.96,212.34,2.39,15.21,6.21,30.71,9.72,47.63-3.35-.89-6.85-1.15-10.27-2.83-72.18-35.89-143.38-73.53-213.77-112.81-5.22-2.93-10.28-8.64-14.94-12.66-15.84,10.92-31.68,22.46-48.65,31.6-43.26,22.68-94.01,23.49-141.39,17.27-69.47-10.53-133.95-34.19-197.67-63.24-98.91-45.1-204.44-109.27-282.54-185.42-30.14-29.38-60.01-58.82-67.04-101.66-23.03-130.55-45.24-261.24-66.94-392.01-31.06-187.74-60.98-375.66-89.56-563.79-21.68-143.36-42.46-286.85-62.49-430.45-2.24-16.11-.25-23.65,7.41-28.93,58.35-39.31,124.48-36.44,190.09-19.89,35.74,11.44,79.33,22.82,112.17,40.82,203.91,111.77,380.44,297.22,441.08,526.29,29.3,110.67,2,211.2-87.76,283.79-3.27,2.64-6.49,5.57-11.1,9.55Zm2928.39,647.1c118.4-69.7,238.42-136.66,352.52-213.35-9.21-80.46-18.49-160.91-27.86-241.35-9.16-78.62-18.31-157.25-28.17-235.79-9.49-74.3-19.67-148.5-30.18-222.66-44.39,32.22-89.37,63.44-135.11,93.71-44.88,29.21-90.41,57.25-136.5,84.51-45.18,25.98-91.54,49.73-137.31,74.65,6.98,31.45,13.65,62.98,21.22,94.29,7.16,31.09,11.72,63.2,22.49,93.36,83.77-52.23,262.55-178.95,271-185.12,9.47,40.88,27.87,120.04,37.12,160.96-90.18,62.12-180.85,123.29-275.5,178.48,22.13,106.09,44.14,212.21,66.26,318.3Zm-3188.38-157.14c17.33,10.22,34.66,20.39,52.17,30.3,54.18,29.07,108.95,53.71,168.6,69.18,30.39,6.2,63.94,12.38,94.05.91,34.91-11.01,44.9-43.37,47.52-76.23.67-61.27-16.36-119.78-41.34-175.16-28.49-59.94-68.22-117.45-122.37-156.97-31.98-23.69-64.06-46.82-97.88-67.83-55.09-32.01-111.73-59.83-171.19-82.78-3.19-1.19-6.22-1.3-10.53-2.15,26.51,153.66,53.44,307.24,80.97,460.72Zm2470.79,460.59c6.9-.31,12.73-.1,18.56-.97,25.01-3.67,50.02-7.5,74.78-12.62,49.12-11.07,95.2-26.31,140.88-47.53,32.91-15.69,64.12-36.29,89.8-62.28,28.63-28.79,48.71-65.9,49.81-107.13-.58-40.47-5.34-81.99-28.49-116.54-23.2-36.3-59.59-61.41-102.76-66.55-30.73-2.44-60.87-1.89-91.17.8-34.77,3.09-69.87,8.77-104.63,15.16-35.33,7.34-70.23,16.32-105.32,24.69-3.78.87-7.36,3.74-11.58,5.96,23.31,122.36,46.61,244.71,70.12,367.03ZM180.26,2404.39c25.5,115.26,51.54,230.4,77.99,345.46,2.54,1.94,3.91,3.24,5.26,3.96,2.34,1.26,4.72,2.48,7,3.17,54.23,15.95,107.36,28.09,164.2,25.78,71.3-2.89,94.87-58.04,79.76-121.54-16.9-71.01-58.19-135.97-115.31-181.4-63.39-50.42-139.86-69.2-218.9-75.43Zm2562.69,954.33c4.99-1.16,7.97-1.64,10.86-2.57,49.23-16.55,95.52-36.49,140.72-62.12,38.52-21.85,77.3-52.15,102.06-89.26,23.52-35.25,34.66-80.65,21.5-120.94-17.45-53.45-66.65-71.47-118.22-66-44.2,4.69-87.21,16.76-129.03,31.47-8.17,2.87-108.35,39.25-107.41,42.38,26.7,88.95,53.16,177.98,79.51,267.04Zm1346.33-647.89c4.73-6.37,6.99-9.25,9.1-12.32,40.88-60.14,79.11-121.87,114.13-185.45,20.85-37.85,40.41-77,53.47-118.39,3.17-10.11,5.69-20.72,6.35-29.64,1.37-18.59-6.43-21.49-20.97-13.36-12.91,7.21-25.51,18.56-38.4,28.61-39.29,31.39-76.3,65.1-113.15,99.29-13.16,12.33-25.88,25.14-38.79,37.74,9.96,64.43,19.32,128.94,28.26,193.52Zm-2167.27,534.41c4.45-1.38,7.18-1.79,9.48-3.01,38.33-20.31,75.61-43.19,110.37-69.17,30.14-22.53,63.59-45.71,80.52-80.49,6.06-12.45,9.83-27.79,3.08-39.88-35.53-63.69-222.59-15.99-228.53-14.96,8.43,69.16,16.77,138.34,25.08,207.51Zm1344.03,122.7c1.17-1.37,2.34-2.75,3.51-4.12-13.77-72.28-26.92-144.66-40.26-217.02-1.29.05-2.58.09-3.88.14-23.13,72.68-65.28,136.26-111.11,196.44,52.72-.58,102.13,6.31,151.74,24.57Zm-1526.84,497.64c1.1-.23,2.2-.45,3.3-.68.13-2.35.58-4.67.36-7.05-5.59-60.84-11.14-121.68-16.3-182.57-.76-9.1-3.77-13.54-12.02-16.28-32.81-11.2-65.24-23.3-97.57-35.82-2.84-1.11-5.85-.87-11.32-1.61,43.1,82.12,87.62,163.44,133.56,244.01Zm-490.08-722.83c-1.6-.6-3.2-1.21-4.81-1.82-4.81,38.4-9.62,76.8-14.44,115.2,14.95,7.15,29.94,14.2,44.98,21.16-8.54-44.85-17.11-89.7-25.73-134.54Z"/>
      <path class="cls-1" d="m1698.27,219.5c.76.25,25.52-12.85,32.11-15.07,6.35,31.61,21.2,106.19,27.55,137.8,86.22-24.86,289.07-69.01,304.41-71.22-2.11,11.72-9.99,60.78-11.71,70.9-11.39,66.75-23.06,133.46-33.8,200.32-11.83,78.24-18.5,156.59-20.28,235.69-1.08,47.81-.37,96.12,8.33,143.28,7.25,39.3,18.42,103.63,63.7,114.02,30.55,7.01,63.35,3.79,91.95-9.02,69.06-30.93,97.45-113.39,107.6-183.15,7.7-52.91,10.37-105.33,10.21-158.77-1.57-81.95-9.48-162.99-21.93-243.97-8.97-55.04-18.98-109.88-28.66-164.8-.78-4.48-1.36-9.01-2.3-15.35,9.22-1.08,17.86-2.84,26.35-2.83,22.74.01,45.81.78,68.72,1.29,43.95.65,87.85,1.77,131.75,3.8,7.48.38,14.98,1.13,23.09,2.17,5.1.65,23.35,3.07,23.35,3.07,1.85,4.5,19.38,43.07,22.19,49.89,20.04,1.24,40.06,2.62,60.08,4.14,51.96,5.25,101.75,16.26,152.01,30.23,49.81,15.08,96.85,34.14,143.29,57.6,80.05,43.25,149,98.49,210.8,165.12,33.65,37.55,65.73,75.47,94.21,117.15,47.94,75.23,82.84,155.54,107.89,241.05,4.33,15.37,7.76,30.7,11.7,46.1,1.26,4.91,2.85,9.85,6.42,15.33-.21-14.67.1-29.15-.71-44.06-3.23-60.25-6.3-120.49-10.64-180.67-7.13-91.33-17.45-181.86-36.54-271.54-6.81-27.28-15.1-54.04-23.2-80.96-1.04-3.59-1.73-7.18-2.93-12.24,97.8,35.88,303.17,138.17,315.39,146.31,2.98,51.2,6.91,146.02,8.26,197.28,1.54,51.89,3.18,103.73,6.34,155.54,1.98-4.79,4.08-9.47,5.94-14.39,17.74-40.71,42.23-74.3,84.43-91.98,72.59-31.86,156.35-4.77,225.34,22.96,251.9,110.46,431.47,345.35,529.71,597.31,2.22,5.69,4.4,11.39,6.46,17.14,26.07,72.74,47.42,146.91,59.33,223.37,8.06,54.6,13.69,108.6,13.18,163.84-.14,22.01-.05,43.91-.92,65.9-5.3,59.92-11.99,118.56-38.01,173.46-35.85,67.51-99.71,80.65-169.81,65.9-64.35-15.96-121.4-54.77-173.9-93.68-158.18-122.85-308.32-292.22-395.9-473.48-54.39-112.58-95.03-237.04-126.75-357.77-3.25-12.73-6.34-25.4-10.16-40.66-12.84,78.11-.61,166.32,2.43,245.06,2.96,82.74,4.04,165.53,5.77,248.3-71.94-44.95-256.27-134.9-272.6-143.9,1.15-51.96,2.26-133.03,2.74-185,.41-52,1.13-103.96-.04-155.95-1.1-.72-2.2-1.44-3.31-2.15-.89,1.26-2.12,2.25-2.61,3.83-15.03,52.14-55.03,89.51-103.56,111.04-65.78,28.83-139.02,34.88-209.76,40.52-100.83,6.61-201.6,4.43-302.46-.17-46.71-2.17-178.83-4.54-190.43-5.88-10.42-38.45-27.57-101.59-38.04-140.03-16.45,13.49-32.73,26.87-49.76,39.63-96.69,61.98-217.74,77.52-330.3,68.65-111.71-8.81-239.66-34.01-300.42-138.94-35.67-61.6-54.53-127.21-66.95-196.95-7.56-49.06-11.62-98.1-14.2-147.64-2.91-78.5,1.25-156.6,6.74-234.89,1.9-25.58,4.59-51.09,6.91-76.63.3-3.38-.06-6.68-.11-9.87-82.63,16.67-176.02,56.53-248.26,99.46,73.6,250.67,138.29,503.58,204.1,756.37-10.49,2.53-18.87,4.75-27.06,6.6-33.43,7.55-65.29,18.24-96.85,32.52-24.25,11.75-89.67,57.29-67.22,42.49.3-.2-44.41,29.95-59.94,42.8-52.2-242.88-114.21-514.81-170.13-756.87-94.96,75.09-185.46,155.21-272.87,238.93,1.41,6.97,8.83,4.83,14.01,5.55,38.85,5.23,78.04,9.52,116.06,19.44,58.14,15.77,112.65,49.85,139.32,105.82,61.72,120.38,1.33,256.42-63.6,361-84.19,131.35-199.77,238.98-322.7,333.56-56.57,42.96-115.1,82.62-176.06,119.08-51.19,29.66-103.66,56.54-156.89,82.32-91.56,44.33-186.94,89.54-285.8,118.88-46.84,13.9-207.3,41.46-234.95,36.57,56.14-144.97,118.36-287.35,184.45-428.04,18.05,15.77,47.27,24.74,68.83,34.19,33.14,14.53,66.68,29.85,102.35,36.9,169.47,33.49,317.93-95.6,421.64-213.61,50.15-59.09,97.24-121.09,132.73-190.26,17.53-37.93,43.03-100.82-8.86-125.01-7.26-3.53-15.18-6.25-23.47-8.28-75.56-18.45-152.41-5.39-225.28,17.78-84.66,28.96-168.03,61.23-251.17,94.26-65.2,25.32-134.05,51.07-205.04,50.4-53.27-.64-87.89-26.75-109.41-74.07-8.61-23.77-9.4-48.39-9.75-73.36,1.43-127.24,51.48-249.51,111.21-359.69,50.67-89.54,112.52-171.88,189.67-240.39,74.65-64.4,155.72-115.02,248.72-148.29,62.64-20.12,125.02-31.69,190.92-29.18,39.68,2.56,78.99,5.64,118.21,12.46,58.09,13.3,108.43,37.11,157.65,70.46,5.16,3.65,10.47,7.14,17.15,11.73,184.36-133.41,376.99-249.77,584.31-343.88Zm2597.97,1361.09c-7.9-118.16-64.9-222.77-125.64-320.38-58.97-94.78-190.72-210.63-311.9-183.2-32.93,7.86-54.85,37.29-62.02,69.24-12.51,49.44-3.47,101.49,6.04,150.52,15.98,75,41.51,147.63,71.96,217.9,28.91,66.72,145.82,247.18,259.53,283.06,57.28,18.08,177.12,8.57,162.03-217.14ZM807.63,804.96c-1.91-4.87-2.75-8.73-4.63-11.53-33.27-51.5-84.29-76.87-144.28-81.09-40.87-1.1-75.78,7.65-112.3,25.5-50.96,29.16-95.78,63.06-136.94,105.02-17.04,18.14-33.03,37.31-47.27,57.73-21.64,33.44-42.48,71.19-38.66,110.71,4.18,43.19,25.32,78.41,76.24,72.18,61.92-6.55,121.09-29.43,178.64-52.02,71.85-28.24,144.4-52.82,219.9-69.32,4.19-.86,8.92-2.98,16.8-5.64-25.6-30.41-51.22-60.8-76.85-91.18,23.01-20.25,46.13-40.36,69.36-60.35Zm2017.72-170.49c20.69,159.49,40.64,319.07,61.28,478.57,17.42-1.34,34.94-2.17,52.3-4.16,41.49-4.89,82.62-15.43,117.25-39.71,43.35-30.47,51.31-77.43,46.18-126.93-14.56-93.93-59.39-181.19-125.68-249.13-16.19-15.67-29.06-26.06-49.16-36.24-21.26-7.18-42.26-13.47-63.99-19.07-11.62-2.75-23.42-2.25-38.18-3.32Zm-151.88,466.43c.72-6.82,1.3-11.3,1.65-15.82,1.43-37.7-2.09-74.12-6.92-111.51-11.33-80.94-28.08-160.66-46.85-240.17-25.92-108.18-53.72-215.8-86.37-322.17-1.17-3.78-3.12-7.37-4.7-11.04-2.28,6.01-2.22,11.15-1.75,16.29,3.55,38.75,7.2,77.49,10.58,116.26,4.82,56.7,9.65,113.41,13.76,170.17,4.96,68.76,9.86,137.01,4.24,205.87-4.26,38.14-10.12,75.35-19.47,112.61-6.42,21.73-13.3,43.26-20.19,64.84,52,5.15,104.15,8.28,156.03,14.66Z"/>
      <path class="cls-1" d="m3424.13,430.98c-51.16-28.75-96.52-74.83-130.75-114.69-42.78-49.82-77.76-116.99-80.55-183.61C3209.94,63.71,3259.9-1.03,3332.86.01c104.63,1.5,186.39,125.22,231.04,206.44,35.81,65.15,85.5,250.64-41.74,252.48-34.01.49-67.08-10.56-98.03-27.96Z"/>
    </g>
  </g>
</svg>